<?xml version="1.0" encoding="iso-8859-1"?>
<!-- Generator: Adobe Illustrator 18.0.0, SVG Export Plug-In . SVG Version: 6.00 Build 0)  -->
<!DOCTYPE svg PUBLIC "-//W3C//DTD SVG 1.1//EN" "http://www.w3.org/Graphics/SVG/1.1/DTD/svg11.dtd">
<svg version="1.1" id="Capa_1" xmlns="http://www.w3.org/2000/svg" xmlns:xlink="http://www.w3.org/1999/xlink" x="0px" y="0px"
	 viewBox="0 0 512 512" style="enable-background:new 0 0 512 512;" xml:space="preserve">
<g>
	<path style="fill:#6EBF5D;" d="M183.949,172.496c-29.125,18.531-66.773,18.531-95.898,0L45.5,145.418
		c-1.414-0.902-3.043-1.375-4.719-1.375c-4.844,0-8.781,3.938-8.781,8.781V288h445.531c-4.852-15-16.547-28.307-32.07-34.275
		l-42.953-16.498c-11.359-4.371-22.578-9.445-33.352-15.086L244.41,156.797c-12.102-6.332-26.793-5.719-38.332,1.617
		L183.949,172.496z"/>
	<path style="fill:#FFFFFF;" d="M340.687,259.355c3.125,3.125,7.219,4.688,11.313,4.688c4.094,0,8.187-1.563,11.312-4.688
		l27.083-27.083c-7.209-3.12-14.317-6.507-21.24-10.132l-9.108-4.771l-19.361,19.361
		C334.437,242.976,334.437,253.109,340.687,259.355z"/>
	<path style="fill:#FFFFFF;" d="M284.687,235.355c3.125,3.125,7.219,4.688,11.313,4.688c4.094,0,8.187-1.563,11.312-4.688
		l29.931-29.931l-29.695-15.555l-22.861,22.861C278.437,218.976,278.437,229.109,284.687,235.355z"/>
	<path style="fill:#FFFFFF;" d="M228.687,211.355c3.121,3.125,7.219,4.688,11.313,4.688c4.094,0,8.191-1.563,11.312-4.688l32-32
		c0.476-0.476,0.903-0.98,1.306-1.497l-29.57-15.489l-26.361,26.361C222.437,194.976,222.437,205.109,228.687,211.355z"/>
	<g>
		<path style="fill:#D0D2D3;" d="M490.239,352.03c3.119-0.123,5.62-2.622,5.748-5.74C494.194,348.323,492.274,350.24,490.239,352.03
			z"/>
		<path style="fill:#D0D2D3;" d="M448,336c11.82,0,22.164-6,27.703-16H36.293C41.836,330,52.18,336,64,336H448z"/>
		<path style="fill:#D0D2D3;" d="M16.014,346.323c0.143,3.089,2.616,5.563,5.705,5.706C19.7,350.247,17.795,348.342,16.014,346.323z
			"/>
	</g>
	<path style="fill:#003B54;" d="M456.945,223.879L414,207.359c-10.219-3.93-20.305-8.496-30-13.566l-124.738-65.34
		c-22.234-11.645-49.199-10.516-70.363,2.961l-22.129,14.082c-18.691,11.895-42.848,11.902-61.539,0L62.68,118.422
		c-6.551-4.172-14.125-6.379-21.898-6.379C18.293,112.043,0,130.336,0,152.824v151.219c0,35.289,28.711,64,64,64v16.016
		c0,8.766,7.18,15.898,16,15.898c8.82,0,16-7.133,16-15.898V368h32v16.059c0,8.766,7.18,15.898,16,15.898c8.82,0,16-7.133,16-15.898
		V368h112v16.059c0,8.766,7.18,15.898,16,15.898c8.82,0,16-7.133,16-15.898V368h32v16.059c0,8.766,7.18,15.898,16,15.898
		c8.82,0,16-7.133,16-15.898V368h32v16.059c0,8.766,7.18,15.898,16,15.898c8.82,0,16-7.133,16-15.898V368h16
		c35.289,0,64-28.69,64-63.979C512,268.74,489.875,236.543,456.945,223.879z M32,152.824c0-4.844,3.937-8.781,8.781-8.781
		c1.676,0,3.305,0.473,4.719,1.375l42.551,27.078c29.125,18.531,66.773,18.531,95.898,0l22.129-14.082
		c11.539-7.336,26.23-7.949,38.332-1.617l124.746,65.344c10.773,5.641,21.992,10.715,33.352,15.086l42.953,16.498
		C460.984,259.693,472.68,273,477.531,288H32V152.824z M448,336H64c-11.82,0-22.164-6-27.707-16h439.41
		C470.164,330,459.82,336,448,336z"/>
</g>
<g>
</g>
<g>
</g>
<g>
</g>
<g>
</g>
<g>
</g>
<g>
</g>
<g>
</g>
<g>
</g>
<g>
</g>
<g>
</g>
<g>
</g>
<g>
</g>
<g>
</g>
<g>
</g>
<g>
</g>
</svg>
